<?xml version="1.0" standalone="no"?>
<!DOCTYPE svg PUBLIC "-//W3C//DTD SVG 20010904//EN"
 "http://www.w3.org/TR/2001/REC-SVG-20010904/DTD/svg10.dtd">
<svg version="1.0" xmlns="http://www.w3.org/2000/svg"
 width="130.000000pt" height="130.000000pt" viewBox="0 0 130.000000 130.000000"
 preserveAspectRatio="xMidYMid meet">
<metadata>
Created by potrace 1.11, written by Peter Selinger 2001-2013
</metadata>
<g transform="translate(0.000000,130.000000) scale(0.100000,-0.100000)"
fill="#000000" stroke="none">
<path d="M560 1108 c-54 -17 -145 -55 -209 -87 -14 -7 -24 -21 -35 -51 -4 -8
-15 -28 -26 -45 -35 -53 -93 -175 -103 -218 -16 -70 -20 -159 -8 -196 64 -214
64 -214 111 -286 11 -16 24 -39 29 -51 5 -11 28 -51 50 -88 23 -36 41 -71 41
-76 0 -6 13 -10 30 -10 22 0 28 4 23 15 -3 9 2 22 12 29 14 10 18 25 17 59 -2
32 2 46 13 51 21 8 21 76 0 76 -8 0 -15 9 -15 20 0 26 -26 26 -42 0 -16 -26
-28 -26 -28 0 0 23 -39 43 -54 29 -6 -5 -19 -9 -30 -9 -20 1 -20 1 3 20 13 11
31 20 41 20 24 0 33 66 14 98 -11 17 -24 22 -55 22 -33 0 -40 3 -37 18 3 13
13 17 42 17 34 0 40 4 48 27 14 40 -14 78 -58 78 -34 0 -39 6 -28 34 5 14 10
13 35 -5 24 -17 32 -19 45 -8 8 7 14 22 13 33 -3 29 11 107 24 127 13 20 -6
49 -32 49 -14 1 -14 2 2 11 9 5 17 16 17 24 0 10 9 12 35 8 32 -5 35 -4 35 20
0 40 10 57 34 57 12 0 28 6 35 13 6 6 26 12 44 12 25 0 32 4 31 18 -2 15 4 16
32 11 27 -5 34 -3 34 9 0 9 -8 18 -17 20 -15 4 -14 5 3 6 11 0 29 -8 39 -19
17 -18 20 -19 41 -5 15 10 25 11 29 4 4 -6 18 -14 31 -19 13 -5 24 -16 24 -25
0 -19 2 -19 47 0 65 27 102 11 103 -45 0 -53 -12 -56 -88 -26 -56 23 -79 27
-123 23 -82 -8 -120 -17 -166 -39 -53 -25 -74 -50 -98 -121 -16 -48 -17 -63
-7 -109 6 -29 18 -89 26 -133 15 -78 30 -114 130 -300 102 -189 102 -190 130
-193 14 -2 26 -1 26 3 0 5 -67 130 -95 177 -51 84 -97 172 -115 218 -24 61
-60 231 -60 285 0 54 26 107 67 135 33 23 46 25 142 25 76 0 120 -5 154 -18
51 -18 69 -15 98 20 29 33 32 82 7 122 -44 71 -115 112 -221 126 -28 4 -59 11
-67 15 -38 19 -107 18 -170 -2z m-55 -78 c3 -5 1 -10 -5 -10 -6 0 -8 -4 -5
-10 7 -11 -18 -14 -28 -3 -8 7 11 33 24 33 4 0 11 -4 14 -10z m235 0 c0 -5 -4
-10 -10 -10 -5 0 -10 5 -10 10 0 6 5 10 10 10 6 0 10 -4 10 -10z m-155 -40
c21 -23 4 -27 -19 -4 -18 17 -20 24 -8 24 5 0 17 -9 27 -20z m-152 -5 c4 -9
-5 -22 -23 -35 -27 -19 -31 -20 -36 -5 -7 17 21 55 41 55 7 0 15 -7 18 -15z
m84 -21 c-3 -3 -12 -4 -19 -1 -8 3 -5 6 6 6 11 1 17 -2 13 -5z m-149 -54 c7
-11 10 -20 6 -20 -13 0 -44 21 -44 30 0 17 25 11 38 -10z m88 8 c4 -6 2 -14
-4 -16 -6 -2 -8 -10 -5 -18 4 -10 0 -12 -11 -8 -24 9 -20 54 5 54 4 0 11 -5
15 -12z m-95 -58 c10 -6 19 -18 19 -27 0 -13 -3 -14 -12 -5 -7 7 -20 12 -30
12 -10 0 -18 7 -18 15 0 18 14 19 41 5z m-37 -71 c-3 -6 -54 0 -54 6 0 2 3 10
6 19 5 14 8 14 29 -2 13 -9 21 -20 19 -23z m76 -33 c0 -19 -31 -30 -41 -14 -4
6 -5 16 -3 20 9 14 44 9 44 -6z m-100 -11 c0 -8 -4 -15 -10 -15 -5 0 -10 7
-10 15 0 8 5 15 10 15 6 0 10 -7 10 -15z m-40 -31 c0 -8 -4 -14 -10 -14 -5 0
-10 9 -10 21 0 11 5 17 10 14 6 -3 10 -13 10 -21z m85 -14 c3 -5 -1 -10 -9
-10 -9 0 -16 5 -16 10 0 6 4 10 9 10 6 0 13 -4 16 -10z m-60 -42 c-1 -12 -7
-24 -13 -26 -18 -6 -27 29 -11 39 21 13 26 11 24 -13z m75 -14 c0 -8 -5 -12
-10 -9 -6 4 -8 11 -5 16 9 14 15 11 15 -7z m-90 -74 c0 -5 -4 -10 -10 -10 -5
0 -10 -7 -10 -15 0 -8 5 -15 11 -15 5 0 7 -4 4 -10 -3 -5 -13 -10 -21 -10 -19
0 -35 41 -22 58 12 14 48 16 48 2z m90 -55 c0 -8 -9 -15 -20 -15 -11 0 -20 7
-20 15 0 8 9 15 20 15 11 0 20 -7 20 -15z m-90 -84 c0 -6 -4 -13 -10 -16 -5
-3 -10 1 -10 9 0 9 5 16 10 16 6 0 10 -4 10 -9z m98 -48 c5 -18 -23 -16 -39 3
-11 14 -10 15 11 12 13 -1 25 -9 28 -15z m22 -158 c7 -9 10 -18 7 -21 -10 -11
-37 5 -37 21 0 19 14 19 30 0z m50 -48 c0 -7 -9 -18 -20 -25 -12 -7 -20 -8
-20 -2 0 5 5 10 10 10 6 0 10 7 10 15 0 8 5 15 10 15 6 0 10 -6 10 -13z m24
-63 c9 -24 7 -34 -8 -34 -18 0 -39 27 -31 40 9 15 32 12 39 -6z"/>
<path d="M501 43 c-36 -25 -25 -39 29 -39 39 0 50 3 50 16 0 25 -54 41 -79 23z"/>
</g>
</svg>
